<svg xmlns="http://www.w3.org/2000/svg" viewBox="0 0 115.01 95">
    <title>no-results</title>
    <path d="M112.51 57a2.5 2.5 0 1 1 2.49-2.5 2.5 2.5 0 0 1-2.49 2.5zm-7.21 35.11a3 3 0 0 1-4.25 0L86.91 77.9a3 3 0 0 1 0-4.26L75.58 62.28l2.83-2.84L89.74 70.8a3 3 0 0 1 4.25 0L108.13 85a3 3 0 0 1 0 4.26zm1.42-5.68L92.57 72.22a1 1 0 0 0-1.42 0l-2.83 2.84a1 1 0 0 0 0 1.42l14.15 14.2a1 1 0 0 0 1.42 0l2.83-2.84a1 1 0 0 0 0-1.42zm-75-25.57a32.08 32.08 0 1 1 45.29 0 32.2 32.2 0 0 1-45.31 0zm43.89-44a30.07 30.07 0 1 0 0 42.59 30 30 0 0 0-.03-42.6zM63.68 35a2.5 2.5 0 1 1 2.48-2.5 2.49 2.49 0 0 1-2.48 2.5zm-18.94 0a2.5 2.5 0 1 1 2.48-2.5 2.49 2.49 0 0 1-2.48 2.5zM6.07 22.35L4.13 21l-1.35 1.93A1.079 1.079 0 0 1 1 21.71l1.35-1.94-1.91-1.36a1.07 1.07 0 0 1 1.22-1.76L3.6 18 5 16.07a1.07 1.07 0 0 1 1.75 1.23l-1.4 1.94 1.94 1.36a1.07 1.07 0 0 1-1.22 1.75zM107 2a1 1 0 1 1-1 1 1 1 0 0 1 1-1m0-2a3 3 0 1 0 3 3 3 3 0 0 0-3-3zM30.27 89a2 2 0 1 1-2 2 2 2 0 0 1 2-2m0-2a4 4 0 1 0 4 4 4 4 0 0 0-4-4z"></path>
    <path d="M60.6 49.69a1 1 0 0 1-.74-.33 7.69 7.69 0 0 0-5.53-2 10.68 10.68 0 0 0-6 2.11A1.025 1.025 0 0 1 47 47.91a12.54 12.54 0 0 1 7.28-2.56 9.65 9.65 0 0 1 7 2.66 1 1 0 0 1-.68 1.68z"></path>
</svg>