<?xml version="1.0" encoding="iso-8859-1"?>
<!-- Generator: Adobe Illustrator 19.0.0, SVG Export Plug-In . SVG Version: 6.00 Build 0)  -->
<svg version="1.1" id="Capa_1" xmlns="http://www.w3.org/2000/svg" xmlns:xlink="http://www.w3.org/1999/xlink" x="0px" y="0px"
	 viewBox="0 0 512 512" style="enable-background:new 0 0 512 512;" xml:space="preserve">
<circle style="fill:#7600FF;" cx="256" cy="256" r="256"/>
<path style="fill:#5900BF;" d="M512,256c0-9.641-0.551-19.151-1.589-28.515l-143.25-143.25l-68.357,15.121v64.715l-77.79-77.791
	l-70.181,8.959l-6.49,72.552l98.665,98.666l-58.389,174.8l70.733,70.733c0.217,0.001,0.431,0.008,0.648,0.008
	c105.634,0,196.314-63.985,235.425-155.307l-0.225-0.225l0.576-0.576C504.795,325.198,512,291.441,512,256z"/>
<path style="fill:#FFFFFF;" d="M298.293,149.705c-2.547-2.314-4.881-4.732-7.108-7.216l-55.467,65.52l-51.099,233.25
	l133.217-278.704C310.252,160.62,303.991,154.883,298.293,149.705z"/>
<path style="fill:#E4F2F6;" d="M298.293,149.705c-2.547-2.314-4.881-4.732-7.108-7.216l-35.614,42.069L256,291.923l61.836-129.368
	C310.252,160.62,303.991,154.883,298.293,149.705z"/>
<path style="fill:#D5D3E0;" d="M198.532,168.534c-0.449,0.122-0.9,0.229-1.351,0.333l130.2,272.392l-51.099-233.25l-55.869-65.996
	C213.817,152.135,212.108,164.861,198.532,168.534z"/>
<polygon style="fill:#BAB9C1;" points="276.282,208.009 256,184.051 256,291.923 327.381,441.259 "/>
<path style="fill:#00FFCE;" d="M181.827,182.228c-30.875,0-55.993-25.119-55.993-55.993s25.119-55.993,55.993-55.993
	s55.993,25.119,55.993,55.993S212.701,182.228,181.827,182.228z M181.827,95.241c-17.09,0-30.993,13.903-30.993,30.993
	s13.903,30.993,30.993,30.993s30.993-13.903,30.993-30.993S198.917,95.241,181.827,95.241z"/>
<path style="fill:#05E0B6;" d="M330.173,182.228c-30.875,0-55.993-25.119-55.993-55.993s25.119-55.993,55.993-55.993
	s55.993,25.119,55.993,55.993S361.048,182.228,330.173,182.228z M330.173,95.241c-17.09,0-30.993,13.903-30.993,30.993
	s13.903,30.993,30.993,30.993s30.993-13.903,30.993-30.993S347.263,95.241,330.173,95.241z"/>
<circle style="fill:#FFFFFF;" cx="256" cy="226.86" r="13.636"/>
<path style="fill:#E7E6ED;" d="M256,240.493c7.531,0,13.636-6.105,13.636-13.636S263.531,213.22,256,213.22V240.493z"/>
<g>
</g>
<g>
</g>
<g>
</g>
<g>
</g>
<g>
</g>
<g>
</g>
<g>
</g>
<g>
</g>
<g>
</g>
<g>
</g>
<g>
</g>
<g>
</g>
<g>
</g>
<g>
</g>
<g>
</g>
</svg>
